<?xml version="1.0" encoding="utf-8"?>
<!-- Generator: Adobe Illustrator 27.6.1, SVG Export Plug-In . SVG Version: 6.00 Build 0)  -->
<svg version="1.1" id="Layer_1" xmlns="http://www.w3.org/2000/svg" xmlns:xlink="http://www.w3.org/1999/xlink" x="0px" y="0px"
	 viewBox="0 0 463.54 283.46" style="enable-background:new 0 0 463.54 283.46;" xml:space="preserve">
<style type="text/css">
	.st0{fill:url(#SVGID_1_);}
	.st1{fill:url(#SVGID_00000136371915951504673750000014419855012654143137_);}
	.st2{fill:url(#SVGID_00000036224333257200556630000014903795016865247419_);}
	.st3{fill:url(#SVGID_00000135657798011571584360000008561393854406131604_);}
	.st4{fill:url(#SVGID_00000087384128005769441020000013885649803536510895_);}
	.st5{fill:url(#SVGID_00000063634002030547025590000003656258673941353640_);}
	.st6{fill:#C4C4B6;}
	.st7{fill:#61604D;}
</style>
<g>
	<g>
		<g>
			
				<linearGradient id="SVGID_1_" gradientUnits="userSpaceOnUse" x1="329.2158" y1="168.4597" x2="376.4033" y2="195.7035" gradientTransform="matrix(0.9981 0.062 -0.062 0.9981 -8.841 -56.7966)">
				<stop  offset="0" style="stop-color:#95C11F"/>
				<stop  offset="1" style="stop-color:#004B21"/>
			</linearGradient>
			<path class="st0" d="M314.13,124.48c-1.54,10.11-4.87,19.42-9.67,28.16l29.91,23.34c13.1-10.28,24.23-21.53,33.07-33.29
				L314.13,124.48z"/>
			
				<linearGradient id="SVGID_00000117662475778932856180000015656403218957481644_" gradientUnits="userSpaceOnUse" x1="343.4281" y1="165.2384" x2="410.0714" y2="98.595" gradientTransform="matrix(0.9981 0.062 -0.062 0.9981 -8.841 -56.7966)">
				<stop  offset="0" style="stop-color:#00ABD7"/>
				<stop  offset="1" style="stop-color:#003C5C"/>
			</linearGradient>
			<path style="fill:url(#SVGID_00000117662475778932856180000015656403218957481644_);" d="M370.68,138.2
				c18.23-26.3,24.85-54.74,15.79-80.07l-76.18,32.85c3.52,9,4.83,18.53,4.23,28.05L370.68,138.2z"/>
			
				<linearGradient id="SVGID_00000065796151437340776910000000837574928667192484_" gradientUnits="userSpaceOnUse" x1="330.4276" y1="123.639" x2="363.8254" y2="52.0172" gradientTransform="matrix(0.9981 0.062 -0.062 0.9981 -8.841 -56.7966)">
				<stop  offset="0" style="stop-color:#E6007E"/>
				<stop  offset="1" style="stop-color:#5D002D"/>
			</linearGradient>
			<path style="fill:url(#SVGID_00000065796151437340776910000000837574928667192484_);" d="M312.45,3.54
				c32.65,6.7,58.36,22.7,70.51,46.49l-76.18,33.52c-6.12-10.82-15.36-19.65-26.77-26.24L312.45,3.54z"/>
			
				<linearGradient id="SVGID_00000004546057650864816020000002304065386274046620_" gradientUnits="userSpaceOnUse" x1="205.5286" y1="94.908" x2="195.1974" y2="61.1162" gradientTransform="matrix(0.9981 0.062 -0.062 0.9981 -8.841 -56.7966)">
				<stop  offset="0" style="stop-color:#F39200"/>
				<stop  offset="1" style="stop-color:#961418"/>
			</linearGradient>
			<path style="fill:url(#SVGID_00000004546057650864816020000002304065386274046620_);" d="M218.9,43.86
				c-13.9,0.58-28.39,3.24-42.85,8.17l-22.82-17.91c3.77-2.2,7.66-4.32,11.64-6.36c9.65-4.94,19.89-9.38,30.62-13.23
				c6.05-2.16,12.09-4.07,18.12-5.75L218.9,43.86z"/>
			
				<linearGradient id="SVGID_00000014619243344756776320000001890498364609831606_" gradientUnits="userSpaceOnUse" x1="275.1357" y1="93.3194" x2="275.1357" y2="38.6437" gradientTransform="matrix(0.9981 0.062 -0.062 0.9981 -8.841 -56.7966)">
				<stop  offset="0" style="stop-color:#FFED00"/>
				<stop  offset="1" style="stop-color:#DD7500"/>
			</linearGradient>
			<path style="fill:url(#SVGID_00000014619243344756776320000001890498364609831606_);" d="M221.47,6.76
				c29.44-7.16,58.04-8.5,83.11-4.63l-30.57,52.15c-13.29-6.25-30.81-10.2-47.73-10.63L221.47,6.76z"/>
			
				<linearGradient id="SVGID_00000076579300000679720390000011353258436366356882_" gradientUnits="userSpaceOnUse" x1="71.4539" y1="132.234" x2="329.8087" y2="132.234">
				<stop  offset="0" style="stop-color:#C4C4B6"/>
				<stop  offset="1" style="stop-color:#61604D"/>
			</linearGradient>
			<path style="fill:url(#SVGID_00000076579300000679720390000011353258436366356882_);" d="M116.02,201.6
				c27.1,20.52,71.22,25.63,114.64,10.1c31.8-11.37,56.86-31.52,71.12-54.48l28.03,22.24c-18.05,13.38-39.45,24.93-63.36,33.48
				c-85.87,30.71-171.38,11.2-190.96-43.59c-15.7-43.91,15.7-97.14,72.98-132.36l21.69,17.18c-57.98,22.34-92.27,74.09-76.9,117.06
				c3.2,8.95,8.3,16.83,14.92,23.52l0.02-0.24c0.02-0.31,0.05-0.62,0.1-0.93l13.79-68.24c0.62-3.04,2.03-5.8,4.21-8.25
				c2.17-2.46,4.72-4.08,7.6-4.85l20.45-5.48l-12.91,64.05l54.12-14.65c4.05-1.08,6.35-2.95,6.89-5.59v-0.35
				c0.4-1.9-0.54-2.9-2.79-3l-23.38,6.27c0,0-8.66-0.06-8.66-4.83c0-1.02,0.12-2.18,0.36-3.49l6.66-33.07
				c0.62-3.06,2.14-5.99,4.56-8.79c2.41-2.79,5.06-4.58,7.94-5.35l57.41-15.38l-5.26,25.96l-31.57,8.46c-4.06,1.09-6.35,3.09-6.9,6
				l-0.12,0.39c-0.3,1.75,0.67,2.63,2.93,2.66l23.26-6.24c5.84-1.56,8.77,0.07,8.77,4.9c0,1.01-0.13,2.18-0.36,3.49l-3.39,16.46
				c-0.48,2.47-1.52,7.93-3.17,16.39c-0.54,2.95-2.04,5.78-4.49,8.45c-2.45,2.69-5.13,4.42-8.01,5.19L116.02,201.6z M277.47,106.94
				l-8.86,44.13c0,0-2.54,10.28-12.15,12.85l-20,5.36l10.95-54.37L277.47,106.94z M249.19,106.11l3.18-15.78
				c0,0,1.36-10.19,12.39-13.15l19.76-5.3l-5.16,26.22L249.19,106.11z"/>
		</g>
	</g>
	<g>
		<path class="st6" d="M27.24,282.9l4.98-22.59L18.41,282.9H15.5l-3.85-22.59L6.67,282.9H0l6.9-31.32h9.11l3.24,19.58l11.97-19.58
			h9.63l-6.9,31.32H27.24z"/>
		<path class="st6" d="M60.71,282.9l-0.8-5.31H46.49l-3.15,5.31H35.4l19.02-31.32h8.36l5.17,31.32H60.71z M57.47,258.25l-7.84,13.48
			h9.72L57.47,258.25z"/>
		<path class="st6" d="M88.42,282.9l-6.9-12.82l-3.24,3.19l-2.16,9.63h-6.67l6.9-31.32h6.67l-2.96,13.43l13.67-13.43h8.59
			l-15.68,14.7l9.63,16.62H88.42z"/>
		<path class="st6" d="M97.9,282.9l6.9-31.32h22.16l-1.31,5.87H110.2l-1.46,6.62h15.12l-1.31,5.87h-15.12l-1.55,7.09h15.45
			l-1.27,5.87H97.9z"/>
		<path class="st6" d="M156.46,282.9l-0.8-5.31h-13.43l-3.15,5.31h-7.94l19.02-31.32h8.36l5.17,31.32H156.46z M153.22,258.25
			l-7.84,13.48h9.72L153.22,258.25z"/>
		<path class="st6" d="M186.79,282.9l-10.24-21.13l-4.7,21.13h-6.67l6.9-31.32h6.86l9.96,20.38l4.56-20.38h6.67l-6.9,31.32H186.79z"
			/>
		<path class="st7" d="M209.18,282.9l6.9-31.32h3.9l-6.9,31.32H209.18z"/>
		<path class="st7" d="M245.76,282.9l5.82-26.34L235.1,282.9h-1.6l-4.84-26.34l-5.78,26.34H219l6.9-31.32h5.4l4.41,24.14
			l15.07-24.14h5.78l-6.9,31.32H245.76z"/>
		<path class="st7" d="M255.58,282.9l6.9-31.32h11.65c5.4,0,8.69,3.76,8.69,8.12c0,4.74-3.19,10.75-11.97,10.75h-8.64l-2.72,12.44
			H255.58z M271.17,266.98c4.93,0,7.56-3.24,7.56-7c0-2.68-2.16-4.93-5.21-4.93h-7.89l-2.68,11.93H271.17z"/>
		<path class="st7" d="M300.14,282.9l-5.26-12.44h-6.57l-2.68,12.44h-3.9l6.9-31.32h11.51c4.51,0,8.88,3.05,8.88,8.17
			c0,5.78-4.09,10.1-10.19,10.52l5.64,12.63H300.14z M297.37,267.03c4.84,0,7.51-3.15,7.51-6.95c0-2.96-2.63-5.02-5.31-5.02h-7.8
			l-2.68,11.97h8.12H297.37z"/>
		<path class="st7" d="M308.87,282.9l6.9-31.32h20.52l-0.75,3.48h-16.62l-2.25,10.1h16.3l-0.75,3.48h-16.34l-2.4,10.8h16.67
			l-0.75,3.47H308.87z"/>
		<path class="st7" d="M333.8,277.88l2.68-2.82c2.16,3.01,5.92,4.93,10.33,4.93c4.88,0,6.9-3.19,6.9-5.82
			c0-6.15-15.54-5.02-15.54-13.95c0-4.84,4.6-9.11,11.08-9.11c4.84,0,9.11,1.88,11.32,4.93l-2.68,2.72
			c-2.07-2.86-5.64-4.23-9.06-4.23c-3.66,0-6.48,2.49-6.48,5.17c0,5.64,15.54,4.84,15.54,13.85c0,4.98-4.04,9.91-11.41,9.91
			C340.85,283.46,335.96,281.07,333.8,277.88z"/>
		<path class="st7" d="M359.91,277.88l2.68-2.82c2.16,3.01,5.92,4.93,10.33,4.93c4.88,0,6.9-3.19,6.9-5.82
			c0-6.15-15.54-5.02-15.54-13.95c0-4.84,4.6-9.11,11.08-9.11c4.84,0,9.11,1.88,11.32,4.93l-2.68,2.72
			c-2.07-2.86-5.64-4.23-9.06-4.23c-3.66,0-6.48,2.49-6.48,5.17c0,5.64,15.54,4.84,15.54,13.85c0,4.98-4.04,9.91-11.41,9.91
			C366.95,283.46,362.07,281.07,359.91,277.88z"/>
		<path class="st7" d="M386.39,282.9l6.9-31.32h3.9l-6.9,31.32H386.39z"/>
		<path class="st7" d="M397.9,269.75c0-10.47,7.84-18.69,17.61-18.69c8.03,0,14.46,5.02,14.46,13.67c0,10.52-7.84,18.74-17.61,18.74
			C404.33,283.46,397.9,278.44,397.9,269.75z M425.84,264.96c0-6.67-4.74-10.43-10.57-10.43c-7.19,0-13.24,6.34-13.24,15.03
			c0,6.72,4.7,10.43,10.57,10.43C419.69,279.99,425.84,273.65,425.84,264.96z"/>
		<path class="st7" d="M452.88,282.9l-12.63-25.55l-5.64,25.55h-3.9l6.9-31.32h3.99l12.49,25.08l5.54-25.08h3.9l-6.9,31.32H452.88z"
			/>
	</g>
</g>
</svg>
